# xmcd
#
# Track frame offsets:
#	150
#	29688
#	83166
#	109228
#	123666
#	147341
#	167543
#	190002
#	215681
#	237141
#	264506
#	295706
# Disc length: 4441 seconds
# Revision: 1
# Processed by: cddbd v1.5.2PL0 Copyright (c) Steve Scherf et al.
#
# Submitted via: libkcddb 0.31
#
DISCID=ae11570c
DTITLE=Bohuslav Martinu - Overture H. 345 - Rhapsody H.171 - Sinfonia Concertante H. 219 - Concerto grosso H. 263 - The parables H.367
DYEAR=1987
DGENRE=Symphonique
TTITLE0=Overture for orchestra H. 345 (1953)
TTITLE1=Rhapsody for large orchestra H.171 (1929)
TTITLE2=Sinfonia Concertante for 2 orchestras H. 219 (1932) - I. Allegro non troppo
TTITLE3=Sinfonia Concertante for 2 orchestras H. 219 (1932) - II. Vivace
TTITLE4=Sinfonia Concertante for 2 orchestras H. 219 (1932) - III. Andante
TTITLE5=Sinfonia Concertante for 2 orchestras H. 219 (1932) - IV. Allegretto
TTITLE6=Concerto grosso for chamber orchestra H. 263 (1937) - I. Allegro ma non troppo
TTITLE7=Concerto grosso for chamber orchestra H. 263 (1937) - II. Adagio
TTITLE8=Concerto grosso for chamber orchestra H. 263 (1937) - III. Allegretto
TTITLE9=The parables for large orchestra H.367 (1957-58) - I. Andante pastorale
TTITLE10=The parables for large orchestra H.367 (1957-58) - II. Poco moderato
TTITLE11=The parables for large orchestra H.367 (1957-58) - III. Poco Allegro
EXTD=
EXTT0=
EXTT1=
EXTT2=
EXTT3=
EXTT4=
EXTT5=
EXTT6=
EXTT7=
EXTT8=
EXTT9=
EXTT10=
EXTT11=
PLAYORDER=
